<svg width="100" height="100" viewBox="0 0 100 100" fill="none" xmlns="http://www.w3.org/2000/svg">
<path d="M70.85 43.3625C71.425 45.175 69.95 46.8708 68.05 46.8708H53.6125C53.0636 46.8712 52.5243 46.727 52.0489 46.4527C51.5734 46.1784 51.1786 45.7837 50.9042 45.3083L43.6875 32.8083C42.7334 31.1583 43.4667 29.0292 45.325 28.625C50.6509 27.4607 56.2195 28.3262 60.9407 31.0521C65.6619 33.778 69.1956 38.168 70.85 43.3625ZM33.8334 35.2667C35.1125 33.8583 37.325 34.2875 38.275 35.9333L45.4917 48.4333C45.766 48.9084 45.9104 49.4473 45.9104 49.9958C45.9104 50.5444 45.766 51.0833 45.4917 51.5583L38.275 64.0583C37.3209 65.7125 35.1084 66.1417 33.8292 64.7292C30.1528 60.7055 28.1176 55.4503 28.125 50C28.1176 44.5477 30.1544 39.2907 33.8334 35.2667ZM45.325 71.375C43.4625 70.9667 42.7292 68.8417 43.6834 67.1917L50.9042 54.6833C51.1786 54.208 51.5734 53.8133 52.0489 53.539C52.5243 53.2647 53.0636 53.1205 53.6125 53.1208H68.05C69.9542 53.1208 71.425 54.8167 70.85 56.6292C69.1973 61.8252 65.6642 66.2171 60.9429 68.9447C56.2215 71.6722 50.6519 72.5389 45.325 71.375Z" fill="#34A803"/>
<g filter="url(#filter0_d_222_656)">
<path fill-rule="evenodd" clip-rule="evenodd" d="M87.5 53.125C88.3288 53.125 89.1236 52.7958 89.7097 52.2097C90.2957 51.6237 90.625 50.8288 90.625 50C90.625 49.1712 90.2957 48.3763 89.7097 47.7903C89.1236 47.2042 88.3288 46.875 87.5 46.875H84.2375C84.0671 44.966 83.7368 43.0746 83.25 41.2208L86.3083 40.1083C86.6941 39.968 87.0484 39.753 87.3511 39.4757C87.6538 39.1984 87.8989 38.8643 88.0724 38.4922C88.2459 38.1202 88.3445 37.7177 88.3625 37.3076C88.3804 36.8975 88.3174 36.4878 88.1771 36.1021C88.0367 35.7163 87.8218 35.362 87.5445 35.0593C87.2672 34.7566 86.933 34.5115 86.561 34.338C86.189 34.1645 85.7864 34.0659 85.3763 34.0479C84.9662 34.03 84.5566 34.093 84.1708 34.2333L81.1083 35.35C80.2916 33.6173 79.3313 31.9559 78.2375 30.3833L80.7375 28.2875C81.0588 28.026 81.325 27.7032 81.5204 27.3379C81.7158 26.9725 81.8367 26.572 81.8759 26.1595C81.9151 25.7471 81.8719 25.331 81.7489 24.9354C81.6258 24.5397 81.4253 24.1726 81.159 23.8552C80.8927 23.5378 80.5659 23.2765 80.1977 23.0865C79.8295 22.8966 79.4272 22.7817 79.0142 22.7487C78.6012 22.7156 78.1858 22.765 77.7921 22.894C77.3983 23.023 77.0342 23.229 76.7208 23.5L74.2208 25.6C72.8615 24.2514 71.3926 23.018 69.8292 21.9125L71.4583 19.0875C71.6667 18.732 71.8028 18.3387 71.8586 17.9304C71.9145 17.5221 71.889 17.1067 71.7836 16.7083C71.6783 16.3099 71.4952 15.9362 71.2448 15.6088C70.9945 15.2814 70.6819 15.0068 70.325 14.8007C69.9681 14.5947 69.5739 14.4612 69.1652 14.4081C68.7565 14.355 68.3414 14.3832 67.9437 14.4912C67.5459 14.5992 67.1735 14.7848 66.8478 15.0373C66.5221 15.2898 66.2495 15.6042 66.0458 15.9625L64.4208 18.7792C62.6804 17.976 60.8754 17.3209 59.025 16.8208L59.5917 13.6125C59.7176 12.8041 59.5215 11.9785 59.0455 11.3131C58.5694 10.6477 57.8514 10.1955 57.0457 10.0537C56.2399 9.91187 55.4107 10.0917 54.736 10.5545C54.0614 11.0174 53.5951 11.7263 53.4375 12.5292L52.8708 15.7375C50.9616 15.5797 49.0426 15.5797 47.1333 15.7375L46.5666 12.5292C46.5027 12.1186 46.3574 11.7248 46.1395 11.3711C45.9215 11.0173 45.6351 10.7105 45.2972 10.4687C44.9592 10.2269 44.5764 10.055 44.1712 9.96292C43.7659 9.87086 43.3464 9.86056 42.9371 9.9326C42.5279 10.0046 42.1371 10.1576 41.7877 10.3825C41.4382 10.6074 41.1371 10.8997 40.9021 11.2424C40.667 11.5851 40.5026 11.9712 40.4185 12.3781C40.3344 12.7851 40.3324 13.2047 40.4125 13.6125L40.9791 16.8208C39.1125 17.325 37.3125 17.9875 35.5875 18.7792L33.9625 15.9625C33.7573 15.6068 33.4841 15.2951 33.1584 15.045C32.8327 14.7949 32.461 14.6115 32.0644 14.5051C31.6678 14.3987 31.2541 14.3714 30.847 14.4249C30.4399 14.4783 30.0473 14.6115 29.6917 14.8167C29.336 15.0219 29.0242 15.2951 28.7742 15.6208C28.5241 15.9464 28.3406 16.3182 28.2342 16.7148C28.1278 17.1114 28.1006 17.525 28.154 17.9321C28.2075 18.3392 28.3406 18.7318 28.5458 19.0875L30.1791 21.9125C28.6156 23.0178 27.1466 24.2512 25.7875 25.6L23.2875 23.5C22.6526 22.9668 21.832 22.7076 21.006 22.7795C20.1801 22.8514 19.4165 23.2485 18.8833 23.8833C18.3501 24.5182 18.091 25.3389 18.1629 26.1648C18.2347 26.9907 18.6318 27.7543 19.2667 28.2875L21.7667 30.3833C20.6729 31.9559 19.7126 33.6173 18.8958 35.35L15.8333 34.2333C15.0542 33.9499 14.1945 33.9875 13.4432 34.338C12.6918 34.6884 12.1105 35.323 11.8271 36.1021C11.5436 36.8812 11.5813 37.7409 11.9317 38.4922C12.2822 39.2436 12.9167 39.8249 13.6958 40.1083L16.7583 41.2208C16.2704 43.0731 15.9387 44.9631 15.7667 46.8708H12.5042C11.6753 46.8708 10.8805 47.2001 10.2944 47.7861C9.70839 48.3722 9.37915 49.167 9.37915 49.9958C9.37915 50.8246 9.70839 51.6195 10.2944 52.2055C10.8805 52.7916 11.6753 53.1208 12.5042 53.1208H15.7667C15.9416 55.0542 16.275 56.9417 16.7583 58.7708L13.6958 59.8875C12.9167 60.171 12.2822 60.7523 11.9317 61.5036C11.5813 62.2549 11.5436 63.1147 11.8271 63.8937C12.1105 64.6728 12.6918 65.3074 13.4432 65.6578C14.1945 66.0083 15.0542 66.0459 15.8333 65.7625L18.8958 64.6458C19.7167 66.3833 20.6791 68.0458 21.7708 69.6083L19.2708 71.7083C18.6426 72.2426 18.2511 73.0035 18.1815 73.8252C18.1119 74.647 18.37 75.4629 18.8994 76.0952C19.4289 76.7274 20.1868 77.1248 21.008 77.2006C21.8292 77.2764 22.647 77.0246 23.2833 76.5L25.7875 74.3958C27.1458 75.7417 28.6166 76.9792 30.1791 78.0833L28.5458 80.9167C28.1314 81.635 28.0193 82.4885 28.2342 83.2894C28.4491 84.0903 28.9734 84.7731 29.6917 85.1875C30.4099 85.6019 31.2634 85.714 32.0644 85.4991C32.8653 85.2842 33.5481 84.76 33.9625 84.0417L35.5875 81.2125C37.3125 82.0125 39.1166 82.6708 40.9791 83.175L40.4125 86.3833C40.2795 87.1946 40.4716 88.0255 40.9471 88.6961C41.4225 89.3667 42.143 89.823 42.9526 89.966C43.7621 90.1091 44.5953 89.9274 45.2718 89.4603C45.9483 88.9933 46.4135 88.2785 46.5666 87.4708L47.1375 84.2542C49.0453 84.4122 50.963 84.4122 52.8708 84.2542L53.4375 87.4708C53.5015 87.8814 53.6467 88.2751 53.8647 88.6289C54.0826 88.9827 54.369 89.2895 54.707 89.5313C55.045 89.7731 55.4277 89.945 55.833 90.0371C56.2382 90.1291 56.6577 90.1394 57.067 90.0674C57.4763 89.9954 57.867 89.8424 58.2165 89.6175C58.5659 89.3926 58.867 89.1003 59.1021 88.7576C59.3372 88.4149 59.5016 88.0288 59.5856 87.6219C59.6697 87.2149 59.6717 86.7953 59.5917 86.3875L59.025 83.175C60.874 82.6747 62.6776 82.0196 64.4166 81.2167L66.0458 84.0375C66.4602 84.7558 67.143 85.28 67.9439 85.4949C68.7449 85.7098 69.5984 85.5977 70.3166 85.1833C71.0349 84.7689 71.5592 84.0862 71.7741 83.2852C71.989 82.4843 71.8769 81.6308 71.4625 80.9125L69.825 78.0833C71.3885 76.978 72.8575 75.7446 74.2167 74.3958L76.7208 76.4958C77.3562 77.0285 78.1772 77.2869 79.0032 77.2142C79.8291 77.1415 80.5923 76.7437 81.125 76.1083C81.6576 75.4729 81.916 74.6519 81.8434 73.826C81.7707 73.0001 81.3729 72.2368 80.7375 71.7042L78.2375 69.6083C79.325 68.0458 80.2875 66.3833 81.1125 64.6458L84.175 65.7583C84.5607 65.8984 84.9703 65.9611 85.3803 65.9429C85.7903 65.9247 86.1927 65.8259 86.5645 65.6522C86.9364 65.4785 87.2703 65.2332 87.5473 64.9304C87.8244 64.6276 88.0391 64.2733 88.1792 63.8875C88.3192 63.5017 88.382 63.0922 88.3637 62.6822C88.3455 62.2722 88.2467 61.8698 88.073 61.498C87.8993 61.1261 87.654 60.7922 87.3513 60.5151C87.0485 60.2381 86.6941 60.0234 86.3083 59.8833L83.25 58.7708C83.7291 56.9417 84.0625 55.0542 84.2375 53.1208H87.5042L87.5 53.125ZM76.4292 40.375C75.295 37.253 73.6162 34.3567 71.4708 31.8208C69.3309 29.2958 66.7641 27.1662 63.8875 25.5292C59.6558 23.1219 54.8685 21.8622 50 21.875C48.2882 21.8733 46.5799 22.0267 44.8958 22.3333C41.7421 22.9121 38.7117 24.0298 35.9375 25.6375C30.2795 28.9149 25.9327 34.0524 23.6375 40.175C23.5969 40.3144 23.5468 40.4508 23.4875 40.5833C22.4175 43.6073 21.8735 46.7923 21.8792 50C21.8738 54.9315 23.1672 59.7775 25.6292 64.0506C28.0912 68.3236 31.635 71.873 35.9041 74.3417L35.9417 74.3625C38.753 75.9906 41.8269 77.1158 45.025 77.6875L45.1166 77.7C48.3811 78.2722 51.7208 78.2666 54.9833 77.6833C58.2208 77.1065 61.3311 75.9626 64.1708 74.3042C66.9526 72.6766 69.4356 70.5854 71.5125 68.1208L71.55 68.0792L71.5875 68.0375C73.7237 65.4822 75.3885 62.5673 76.5042 59.4292C77.5583 56.4833 78.1292 53.3083 78.1292 50C78.1289 46.7184 77.5536 43.4622 76.4292 40.3792V40.375Z" fill="#34A803"/>
</g>
<defs>
<filter id="filter0_d_222_656" x="9.37915" y="9.88528" width="89.2458" height="88.2294" filterUnits="userSpaceOnUse" color-interpolation-filters="sRGB">
<feFlood flood-opacity="0" result="BackgroundImageFix"/>
<feColorMatrix in="SourceAlpha" type="matrix" values="0 0 0 0 0 0 0 0 0 0 0 0 0 0 0 0 0 0 127 0" result="hardAlpha"/>
<feOffset dx="4" dy="4"/>
<feGaussianBlur stdDeviation="2"/>
<feComposite in2="hardAlpha" operator="out"/>
<feColorMatrix type="matrix" values="0 0 0 0 0 0 0 0 0 0 0 0 0 0 0 0 0 0 0.25 0"/>
<feBlend mode="normal" in2="BackgroundImageFix" result="effect1_dropShadow_222_656"/>
<feBlend mode="normal" in="SourceGraphic" in2="effect1_dropShadow_222_656" result="shape"/>
</filter>
</defs>
</svg>
