<svg width="100" height="100" viewBox="0 0 100 100" fill="none" xmlns="http://www.w3.org/2000/svg">
<g clip-path="url(#clip0_222_156)">
<path d="M50 62.5C53.3152 62.5 56.4946 61.183 58.8388 58.8388C61.183 56.4946 62.5 53.3152 62.5 50C62.5 46.6848 61.183 43.5054 58.8388 41.1612C56.4946 38.817 53.3152 37.5 50 37.5C46.6848 37.5 43.5054 38.817 41.1612 41.1612C38.817 43.5054 37.5 46.6848 37.5 50C37.5 53.3152 38.817 56.4946 41.1612 58.8388C43.5054 61.183 46.6848 62.5 50 62.5Z" fill="#34A803"/>
<g filter="url(#filter0_d_222_156)">
<path fill-rule="evenodd" clip-rule="evenodd" d="M5.51249 47.6958C11.7125 29.0667 29.2833 15.625 50.0042 15.625C70.7125 15.625 88.275 29.0542 94.4833 47.6667C94.9833 49.175 94.9833 50.8 94.4833 52.3042C88.2875 70.9333 70.7125 84.375 49.9958 84.375C29.2875 84.375 11.7208 70.9458 5.51666 52.3333C5.01561 50.8281 5.01561 49.2011 5.51666 47.6958H5.51249ZM71.875 50C71.875 55.8016 69.5703 61.3656 65.4679 65.468C61.3656 69.5703 55.8016 71.875 50 71.875C44.1984 71.875 38.6344 69.5703 34.532 65.468C30.4297 61.3656 28.125 55.8016 28.125 50C28.125 44.1984 30.4297 38.6344 34.532 34.532C38.6344 30.4297 44.1984 28.125 50 28.125C55.8016 28.125 61.3656 30.4297 65.4679 34.532C69.5703 38.6344 71.875 44.1984 71.875 50Z" fill="#34A803"/>
</g>
</g>
<defs>
<filter id="filter0_d_222_156" x="5.14087" y="15.625" width="97.7174" height="76.75" filterUnits="userSpaceOnUse" color-interpolation-filters="sRGB">
<feFlood flood-opacity="0" result="BackgroundImageFix"/>
<feColorMatrix in="SourceAlpha" type="matrix" values="0 0 0 0 0 0 0 0 0 0 0 0 0 0 0 0 0 0 127 0" result="hardAlpha"/>
<feOffset dx="4" dy="4"/>
<feGaussianBlur stdDeviation="2"/>
<feComposite in2="hardAlpha" operator="out"/>
<feColorMatrix type="matrix" values="0 0 0 0 0 0 0 0 0 0 0 0 0 0 0 0 0 0 0.25 0"/>
<feBlend mode="normal" in2="BackgroundImageFix" result="effect1_dropShadow_222_156"/>
<feBlend mode="normal" in="SourceGraphic" in2="effect1_dropShadow_222_156" result="shape"/>
</filter>
<clipPath id="clip0_222_156">
<rect width="100" height="100" fill="white"/>
</clipPath>
</defs>
</svg>
