<svg width="100" height="100" viewBox="0 0 100 100" fill="none" xmlns="http://www.w3.org/2000/svg">
<g clip-path="url(#clip0_222_248)">
<path d="M18.75 40.625C17.9212 40.625 17.1263 40.9542 16.5403 41.5403C15.9542 42.1263 15.625 42.9212 15.625 43.75V62.5C15.625 64.225 17.025 65.625 18.75 65.625H46.875C47.7038 65.625 48.4987 65.2958 49.0847 64.7097C49.6708 64.1237 50 63.3288 50 62.5V43.75C50 42.9212 49.6708 42.1263 49.0847 41.5403C48.4987 40.9542 47.7038 40.625 46.875 40.625H18.75Z" fill="#34A803"/>
<g filter="url(#filter0_d_222_248)">
<path fill-rule="evenodd" clip-rule="evenodd" d="M15.625 28.125C12.3098 28.125 9.13037 29.442 6.78616 31.7862C4.44196 34.1304 3.125 37.3098 3.125 40.625V65.625C3.125 68.9402 4.44196 72.1196 6.78616 74.4638C9.13037 76.808 12.3098 78.125 15.625 78.125H78.125C81.4402 78.125 84.6196 76.808 86.9638 74.4638C89.308 72.1196 90.625 68.9402 90.625 65.625V65.4708C94.1917 64.7458 96.875 61.5958 96.875 57.8125V48.4375C96.875 44.6583 94.1917 41.5042 90.625 40.7833V40.625C90.625 37.3098 89.308 34.1304 86.9638 31.7862C84.6196 29.442 81.4402 28.125 78.125 28.125H15.625ZM78.125 34.375C79.7826 34.375 81.3723 35.0335 82.5444 36.2056C83.7165 37.3777 84.375 38.9674 84.375 40.625V65.625C84.375 67.2826 83.7165 68.8723 82.5444 70.0444C81.3723 71.2165 79.7826 71.875 78.125 71.875H15.625C13.9674 71.875 12.3777 71.2165 11.2056 70.0444C10.0335 68.8723 9.375 67.2826 9.375 65.625V40.625C9.375 38.9674 10.0335 37.3777 11.2056 36.2056C12.3777 35.0335 13.9674 34.375 15.625 34.375H78.125Z" fill="#34A803"/>
</g>
</g>
<defs>
<filter id="filter0_d_222_248" x="3.125" y="28.125" width="101.75" height="58" filterUnits="userSpaceOnUse" color-interpolation-filters="sRGB">
<feFlood flood-opacity="0" result="BackgroundImageFix"/>
<feColorMatrix in="SourceAlpha" type="matrix" values="0 0 0 0 0 0 0 0 0 0 0 0 0 0 0 0 0 0 127 0" result="hardAlpha"/>
<feOffset dx="4" dy="4"/>
<feGaussianBlur stdDeviation="2"/>
<feComposite in2="hardAlpha" operator="out"/>
<feColorMatrix type="matrix" values="0 0 0 0 0 0 0 0 0 0 0 0 0 0 0 0 0 0 0.25 0"/>
<feBlend mode="normal" in2="BackgroundImageFix" result="effect1_dropShadow_222_248"/>
<feBlend mode="normal" in="SourceGraphic" in2="effect1_dropShadow_222_248" result="shape"/>
</filter>
<clipPath id="clip0_222_248">
<rect width="100" height="100" fill="white"/>
</clipPath>
</defs>
</svg>
