<svg width="45" height="45" viewBox="0 0 45 45" fill="none" xmlns="http://www.w3.org/2000/svg">
<g filter="url(#filter0_d_384_1109)">
<path fill-rule="evenodd" clip-rule="evenodd" d="M20.86 3.61679C20.6278 3.39664 20.32 3.27393 20 3.27393C19.68 3.27393 19.3722 3.39664 19.14 3.61679C15.6021 6.97659 10.8902 8.819 6.01168 8.75012C5.7459 8.74667 5.48594 8.82802 5.26955 8.98237C5.05316 9.13672 4.89161 9.35603 4.80834 9.60845C4.10497 11.7521 3.74771 13.9941 3.75001 16.2501C3.75001 26.1535 10.5233 34.4718 19.6883 36.8301C19.8928 36.8828 20.1072 36.8828 20.3117 36.8301C29.4767 34.4718 36.25 26.1535 36.25 16.2501C36.25 13.9335 35.8783 11.7001 35.1917 9.60845C35.1087 9.35572 34.9473 9.13605 34.7309 8.98138C34.5144 8.82671 34.2543 8.74511 33.9883 8.74845L33.75 8.75012C28.7567 8.75012 24.2217 6.80012 20.86 3.61679ZM26.0167 16.9768C26.1167 16.8435 26.189 16.6916 26.2295 16.53C26.2699 16.3684 26.2777 16.2004 26.2523 16.0357C26.2268 15.8711 26.1688 15.7132 26.0814 15.5713C25.9941 15.4294 25.8793 15.3064 25.7438 15.2095C25.6082 15.1127 25.4547 15.0439 25.2922 15.0072C25.1297 14.9705 24.9615 14.9666 24.7975 14.9959C24.6335 15.0251 24.477 15.0869 24.3371 15.1775C24.1973 15.2681 24.077 15.3857 23.9833 15.5235L18.59 23.0735L15.8833 20.3668C15.6464 20.146 15.333 20.0258 15.0091 20.0315C14.6853 20.0372 14.3763 20.1684 14.1473 20.3974C13.9183 20.6264 13.7871 20.9354 13.7814 21.2593C13.7757 21.5831 13.8959 21.8965 14.1167 22.1335L17.8667 25.8835C17.995 26.0117 18.1497 26.1104 18.32 26.1729C18.4903 26.2353 18.6722 26.2599 18.853 26.245C19.0337 26.2301 19.2091 26.176 19.3669 26.0865C19.5247 25.9971 19.6611 25.8743 19.7667 25.7268L26.0167 16.9768Z" fill="#0C3102"/>
</g>
<defs>
<filter id="filter0_d_384_1109" x="0" y="0" width="48" height="48" filterUnits="userSpaceOnUse" color-interpolation-filters="sRGB">
<feFlood flood-opacity="0" result="BackgroundImageFix"/>
<feColorMatrix in="SourceAlpha" type="matrix" values="0 0 0 0 0 0 0 0 0 0 0 0 0 0 0 0 0 0 127 0" result="hardAlpha"/>
<feOffset dx="4" dy="4"/>
<feGaussianBlur stdDeviation="2"/>
<feComposite in2="hardAlpha" operator="out"/>
<feColorMatrix type="matrix" values="0 0 0 0 0 0 0 0 0 0 0 0 0 0 0 0 0 0 0.25 0"/>
<feBlend mode="normal" in2="BackgroundImageFix" result="effect1_dropShadow_384_1109"/>
<feBlend mode="normal" in="SourceGraphic" in2="effect1_dropShadow_384_1109" result="shape"/>
</filter>
</defs>
</svg>
