<svg width="100" height="100" viewBox="0 0 100 100" fill="none" xmlns="http://www.w3.org/2000/svg">
<g clip-path="url(#clip0_222_161)">
<g filter="url(#filter0_d_222_161)">
<path fill-rule="evenodd" clip-rule="evenodd" d="M50 28.125C49.9991 24.7083 50.7986 21.339 52.3343 18.2869C53.87 15.2348 56.0993 12.5849 58.8436 10.5495C61.5878 8.51414 64.7706 7.14987 68.1371 6.56603C71.5035 5.9822 74.9598 6.19504 78.2292 7.1875C78.7459 7.34404 79.2133 7.63179 79.5857 8.02271C79.9581 8.41362 80.2229 8.89436 80.3543 9.41807C80.4856 9.94177 80.479 10.4906 80.3352 11.011C80.1913 11.5314 79.915 12.0056 79.5333 12.3875L65.7 26.2167C65.9625 28.1958 66.85 30.1083 68.3708 31.6292C69.8917 33.15 71.8042 34.0375 73.7875 34.2958L87.6125 20.4667C87.9944 20.085 88.4686 19.8087 88.989 19.6648C89.5094 19.521 90.0582 19.5144 90.5819 19.6457C91.1057 19.7771 91.5864 20.0419 91.9773 20.4143C92.3682 20.7867 92.656 21.2541 92.8125 21.7708C93.8509 25.1911 94.0354 28.8136 93.3498 32.3217C92.6642 35.8297 91.1294 39.1162 88.8797 41.8938C86.63 44.6714 83.7339 46.8554 80.4448 48.2548C77.1557 49.6541 73.5738 50.2261 70.0125 49.9208C65.7708 49.5625 62.2208 50.3375 60.3917 52.5625L30.6 88.75C29.3802 90.224 27.866 91.427 26.1544 92.2821C24.4427 93.1371 22.5714 93.6253 20.6603 93.7153C18.7491 93.8054 16.8402 93.4954 15.0557 92.8051C13.2713 92.1148 11.6507 91.0595 10.2976 89.7068C8.94457 88.354 7.88892 86.7336 7.19826 84.9493C6.50761 83.165 6.19717 81.2562 6.28682 79.345C6.37648 77.4338 6.86425 75.5624 7.71891 73.8506C8.57356 72.1388 9.77627 70.6243 11.25 69.4042L47.4333 39.6083C49.6542 37.775 50.4333 34.2292 50.075 29.9875C50.024 29.368 49.999 28.7466 50 28.125ZM17.1542 79.6875C17.1542 78.8587 17.4834 78.0638 18.0695 77.4778C18.6555 76.8917 19.4504 76.5625 20.2792 76.5625H20.3125C21.1413 76.5625 21.9362 76.8917 22.5222 77.4778C23.1083 78.0638 23.4375 78.8587 23.4375 79.6875V79.7208C23.4375 80.5496 23.1083 81.3445 22.5222 81.9305C21.9362 82.5166 21.1413 82.8458 20.3125 82.8458H20.2792C19.4504 82.8458 18.6555 82.5166 18.0695 81.9305C17.4834 81.3445 17.1542 80.5496 17.1542 79.7208V79.6875Z" fill="#34A803"/>
</g>
<path d="M41.9833 36L32.8125 26.8333V20.3083C32.8124 19.7688 32.6727 19.2385 32.4069 18.769C32.1412 18.2995 31.7584 17.9068 31.2958 17.6292L15.6708 8.25417C15.0732 7.89592 14.373 7.74768 13.6815 7.83299C12.9899 7.91829 12.3468 8.23226 11.8541 8.725L8.72913 11.85C8.23639 12.3426 7.92242 12.9858 7.83711 13.6773C7.75181 14.3689 7.90005 15.0691 8.25829 15.6667L17.6333 31.2917C17.911 31.7542 18.3037 32.137 18.7731 32.4028C19.2426 32.6686 19.773 32.8083 20.3125 32.8083H26.8291L35.4208 41.4L41.9833 35.9958V36Z" fill="#34A803"/>
<path fill-rule="evenodd" clip-rule="evenodd" d="M52.3167 72.2042L69.7458 89.6292C71.0517 90.935 72.6019 91.9708 74.308 92.6776C76.0142 93.3843 77.8428 93.748 79.6896 93.748C81.5363 93.748 83.3649 93.3843 85.0711 92.6776C86.7772 91.9708 88.3275 90.935 89.6333 89.6292C90.9391 88.3233 91.975 86.7731 92.6817 85.0669C93.3884 83.3608 93.7522 81.5321 93.7522 79.6854C93.7522 77.8387 93.3884 76.01 92.6817 74.3039C91.975 72.5977 90.9391 71.0475 89.6333 69.7417L75.8583 55.9708C73.7468 56.2702 71.6083 56.3303 69.4833 56.15C67.8417 56.0083 66.6417 56.125 65.8708 56.325C65.6269 56.3766 65.3922 56.4652 65.175 56.5875L52.3167 72.2042ZM66.5417 66.5375C67.1276 65.9523 67.9219 65.6236 68.75 65.6236C69.5781 65.6236 70.3724 65.9523 70.9583 66.5375L78.7708 74.3542C79.0779 74.6403 79.3241 74.9853 79.4949 75.3686C79.6657 75.7519 79.7575 76.1657 79.7649 76.5853C79.7724 77.0049 79.6952 77.4217 79.538 77.8108C79.3808 78.1999 79.1469 78.5534 78.8501 78.8502C78.5534 79.1469 78.1999 79.3808 77.8108 79.538C77.4217 79.6952 77.0049 79.7724 76.5853 79.765C76.1657 79.7576 75.7519 79.6657 75.3686 79.4949C74.9852 79.3241 74.6402 79.0779 74.3542 78.7708L66.5417 70.9583C65.9564 70.3724 65.6277 69.5781 65.6277 68.75C65.6277 67.9219 65.9564 67.1276 66.5417 66.5417V66.5375Z" fill="#34A803"/>
</g>
<defs>
<filter id="filter0_d_222_161" x="6.27173" y="6.2443" width="95.4843" height="95.4863" filterUnits="userSpaceOnUse" color-interpolation-filters="sRGB">
<feFlood flood-opacity="0" result="BackgroundImageFix"/>
<feColorMatrix in="SourceAlpha" type="matrix" values="0 0 0 0 0 0 0 0 0 0 0 0 0 0 0 0 0 0 127 0" result="hardAlpha"/>
<feOffset dx="4" dy="4"/>
<feGaussianBlur stdDeviation="2"/>
<feComposite in2="hardAlpha" operator="out"/>
<feColorMatrix type="matrix" values="0 0 0 0 0 0 0 0 0 0 0 0 0 0 0 0 0 0 0.25 0"/>
<feBlend mode="normal" in2="BackgroundImageFix" result="effect1_dropShadow_222_161"/>
<feBlend mode="normal" in="SourceGraphic" in2="effect1_dropShadow_222_161" result="shape"/>
</filter>
<clipPath id="clip0_222_161">
<rect width="100" height="100" fill="white"/>
</clipPath>
</defs>
</svg>
