<svg width="52" height="52" viewBox="0 0 52 52" fill="none" xmlns="http://www.w3.org/2000/svg">
<g filter="url(#filter0_d_648_430)">
<path fill-rule="evenodd" clip-rule="evenodd" d="M25 4.6875C13.7812 4.6875 4.6875 13.7812 4.6875 25C4.6875 36.2188 13.7812 45.3125 25 45.3125C36.2188 45.3125 45.3125 36.2188 45.3125 25C45.3125 13.7812 36.2188 4.6875 25 4.6875ZM16.0833 23.8958C15.7907 24.1888 15.6264 24.5859 15.6264 25C15.6264 25.4141 15.7907 25.8112 16.0833 26.1042L22.3333 32.3542C22.4764 32.5077 22.6489 32.6308 22.8405 32.7162C23.0322 32.8016 23.2391 32.8475 23.4489 32.8512C23.6587 32.8549 23.8671 32.8163 24.0617 32.7378C24.2562 32.6592 24.433 32.5422 24.5813 32.3938C24.7297 32.2455 24.8467 32.0687 24.9253 31.8742C25.0038 31.6796 25.0424 31.4712 25.0387 31.2614C25.035 31.0516 24.9891 30.8447 24.9037 30.653C24.8183 30.4614 24.6952 30.2889 24.5417 30.1458L20.9583 26.5625H32.8125C33.2269 26.5625 33.6243 26.3979 33.9174 26.1049C34.2104 25.8118 34.375 25.4144 34.375 25C34.375 24.5856 34.2104 24.1882 33.9174 23.8951C33.6243 23.6021 33.2269 23.4375 32.8125 23.4375H20.9583L24.5417 19.8542C24.8177 19.558 24.9679 19.1662 24.9608 18.7614C24.9536 18.3566 24.7897 17.9704 24.5034 17.6841C24.2171 17.3978 23.8309 17.2339 23.4261 17.2267C23.0213 17.2196 22.6295 17.3698 22.3333 17.6458L16.0833 23.8958Z" fill="black"/>
</g>
<defs>
<filter id="filter0_d_648_430" x="-2" y="-2" width="58" height="58" filterUnits="userSpaceOnUse" color-interpolation-filters="sRGB">
<feFlood flood-opacity="0" result="BackgroundImageFix"/>
<feColorMatrix in="SourceAlpha" type="matrix" values="0 0 0 0 0 0 0 0 0 0 0 0 0 0 0 0 0 0 127 0" result="hardAlpha"/>
<feOffset dx="2" dy="2"/>
<feGaussianBlur stdDeviation="2"/>
<feComposite in2="hardAlpha" operator="out"/>
<feColorMatrix type="matrix" values="0 0 0 0 0 0 0 0 0 0 0 0 0 0 0 0 0 0 0.25 0"/>
<feBlend mode="normal" in2="BackgroundImageFix" result="effect1_dropShadow_648_430"/>
<feBlend mode="normal" in="SourceGraphic" in2="effect1_dropShadow_648_430" result="shape"/>
</filter>
</defs>
</svg>
