<svg width="34" height="34" viewBox="0 0 34 34" fill="none" xmlns="http://www.w3.org/2000/svg">
<g filter="url(#filter0_d_641_4048)">
<path fill-rule="evenodd" clip-rule="evenodd" d="M15 2.8125C8.26875 2.8125 2.8125 8.26875 2.8125 15C2.8125 21.7313 8.26875 27.1875 15 27.1875C21.7313 27.1875 27.1875 21.7313 27.1875 15C27.1875 8.26875 21.7313 2.8125 15 2.8125ZM9.65 14.3375C9.47444 14.5133 9.37582 14.7516 9.37582 15C9.37582 15.2484 9.47444 15.4867 9.65 15.6625L13.4 19.4125C13.4858 19.5046 13.5893 19.5785 13.7043 19.6297C13.8193 19.681 13.9435 19.7085 14.0693 19.7107C14.1952 19.713 14.3203 19.6898 14.437 19.6427C14.5537 19.5955 14.6598 19.5253 14.7488 19.4363C14.8378 19.3473 14.908 19.2412 14.9552 19.1245C15.0023 19.0078 15.0255 18.8827 15.0232 18.7568C15.021 18.631 14.9935 18.5068 14.9422 18.3918C14.891 18.2768 14.8171 18.1733 14.725 18.0875L12.575 15.9375H19.6875C19.9361 15.9375 20.1746 15.8387 20.3504 15.6629C20.5262 15.4871 20.625 15.2486 20.625 15C20.625 14.7514 20.5262 14.5129 20.3504 14.3371C20.1746 14.1613 19.9361 14.0625 19.6875 14.0625H12.575L14.725 11.9125C14.8906 11.7348 14.9808 11.4997 14.9765 11.2568C14.9722 11.014 14.8738 10.7822 14.702 10.6105C14.5303 10.4387 14.2985 10.3403 14.0557 10.336C13.8128 10.3317 13.5777 10.4219 13.4 10.5875L9.65 14.3375Z" fill="#666666"/>
</g>
<defs>
<filter id="filter0_d_641_4048" x="-2" y="-2" width="38" height="38" filterUnits="userSpaceOnUse" color-interpolation-filters="sRGB">
<feFlood flood-opacity="0" result="BackgroundImageFix"/>
<feColorMatrix in="SourceAlpha" type="matrix" values="0 0 0 0 0 0 0 0 0 0 0 0 0 0 0 0 0 0 127 0" result="hardAlpha"/>
<feOffset dx="2" dy="2"/>
<feGaussianBlur stdDeviation="2"/>
<feComposite in2="hardAlpha" operator="out"/>
<feColorMatrix type="matrix" values="0 0 0 0 0 0 0 0 0 0 0 0 0 0 0 0 0 0 0.25 0"/>
<feBlend mode="normal" in2="BackgroundImageFix" result="effect1_dropShadow_641_4048"/>
<feBlend mode="normal" in="SourceGraphic" in2="effect1_dropShadow_641_4048" result="shape"/>
</filter>
</defs>
</svg>
