<svg width="50" height="52" viewBox="0 0 50 52" fill="none" xmlns="http://www.w3.org/2000/svg">
<g filter="url(#filter0_d_648_437)">
<path fill-rule="evenodd" clip-rule="evenodd" d="M25 4.6875C13.7812 4.6875 4.6875 13.7812 4.6875 25C4.6875 36.2188 13.7812 45.3125 25 45.3125C36.2188 45.3125 45.3125 36.2188 45.3125 25C45.3125 13.7812 36.2188 4.6875 25 4.6875ZM33.9167 26.1042C34.2093 25.8112 34.3736 25.4141 34.3736 25C34.3736 24.5859 34.2093 24.1888 33.9167 23.8958L27.6667 17.6458C27.5236 17.4923 27.3511 17.3692 27.1595 17.2838C26.9678 17.1984 26.7609 17.1525 26.5511 17.1488C26.3413 17.1451 26.1329 17.1837 25.9383 17.2622C25.7438 17.3408 25.567 17.4578 25.4187 17.6062C25.2703 17.7545 25.1533 17.9313 25.0747 18.1258C24.9962 18.3204 24.9576 18.5288 24.9613 18.7386C24.965 18.9484 25.0109 19.1553 25.0963 19.347C25.1817 19.5386 25.3048 19.7111 25.4583 19.8542L29.0417 23.4375H17.1875C16.7731 23.4375 16.3757 23.6021 16.0826 23.8951C15.7896 24.1882 15.625 24.5856 15.625 25C15.625 25.4144 15.7896 25.8118 16.0826 26.1049C16.3757 26.3979 16.7731 26.5625 17.1875 26.5625H29.0417L25.4583 30.1458C25.3048 30.2889 25.1817 30.4614 25.0963 30.653C25.0109 30.8447 24.965 31.0516 24.9613 31.2614C24.9576 31.4712 24.9962 31.6796 25.0747 31.8742C25.1533 32.0687 25.2703 32.2455 25.4187 32.3938C25.567 32.5422 25.7438 32.6592 25.9383 32.7378C26.1329 32.8163 26.3413 32.8549 26.5511 32.8512C26.7609 32.8475 26.9678 32.8016 27.1595 32.7162C27.3511 32.6308 27.5236 32.5077 27.6667 32.3542L33.9167 26.1042Z" fill="black"/>
</g>
<defs>
<filter id="filter0_d_648_437" x="-2" y="-2" width="58" height="58" filterUnits="userSpaceOnUse" color-interpolation-filters="sRGB">
<feFlood flood-opacity="0" result="BackgroundImageFix"/>
<feColorMatrix in="SourceAlpha" type="matrix" values="0 0 0 0 0 0 0 0 0 0 0 0 0 0 0 0 0 0 127 0" result="hardAlpha"/>
<feOffset dx="2" dy="2"/>
<feGaussianBlur stdDeviation="2"/>
<feComposite in2="hardAlpha" operator="out"/>
<feColorMatrix type="matrix" values="0 0 0 0 0 0 0 0 0 0 0 0 0 0 0 0 0 0 0.25 0"/>
<feBlend mode="normal" in2="BackgroundImageFix" result="effect1_dropShadow_648_437"/>
<feBlend mode="normal" in="SourceGraphic" in2="effect1_dropShadow_648_437" result="shape"/>
</filter>
</defs>
</svg>
