<svg width="50" height="50" viewBox="0 0 50 50" fill="none" xmlns="http://www.w3.org/2000/svg">
<g clip-path="url(#clip0_277_1301)">
<g filter="url(#filter0_d_277_1301)">
<path fill-rule="evenodd" clip-rule="evenodd" d="M25 4.6875C13.7812 4.6875 4.6875 13.7812 4.6875 25C4.6875 36.2188 13.7812 45.3125 25 45.3125C36.2188 45.3125 45.3125 36.2188 45.3125 25C45.3125 13.7812 36.2188 4.6875 25 4.6875ZM21.4167 19.2083C21.2736 19.0548 21.1011 18.9317 20.9095 18.8463C20.7178 18.7609 20.5109 18.715 20.3011 18.7113C20.0913 18.7076 19.8829 18.7462 19.6883 18.8247C19.4938 18.9033 19.317 19.0203 19.1687 19.1687C19.0203 19.317 18.9033 19.4938 18.8247 19.6883C18.7462 19.8829 18.7076 20.0913 18.7113 20.3011C18.715 20.5109 18.7609 20.7178 18.8463 20.9095C18.9317 21.1011 19.0548 21.2736 19.2083 21.4167L22.7917 25L19.2083 28.5833C19.0548 28.7264 18.9317 28.8989 18.8463 29.0905C18.7609 29.2822 18.715 29.4891 18.7113 29.6989C18.7076 29.9087 18.7462 30.1171 18.8247 30.3117C18.9033 30.5062 19.0203 30.683 19.1687 30.8313C19.317 30.9797 19.4938 31.0967 19.6883 31.1753C19.8829 31.2538 20.0913 31.2924 20.3011 31.2887C20.5109 31.285 20.7178 31.2391 20.9095 31.1537C21.1011 31.0683 21.2736 30.9452 21.4167 30.7917L25 27.2083L28.5833 30.7917C28.7264 30.9452 28.8989 31.0683 29.0905 31.1537C29.2822 31.2391 29.4891 31.285 29.6989 31.2887C29.9087 31.2924 30.1171 31.2538 30.3117 31.1753C30.5062 31.0967 30.683 30.9797 30.8313 30.8313C30.9797 30.683 31.0967 30.5062 31.1753 30.3117C31.2538 30.1171 31.2924 29.9087 31.2887 29.6989C31.285 29.4891 31.2391 29.2822 31.1537 29.0905C31.0683 28.8989 30.9452 28.7264 30.7917 28.5833L27.2083 25L30.7917 21.4167C30.9452 21.2736 31.0683 21.1011 31.1537 20.9095C31.2391 20.7178 31.285 20.5109 31.2887 20.3011C31.2924 20.0913 31.2538 19.8829 31.1753 19.6883C31.0967 19.4938 30.9797 19.317 30.8313 19.1687C30.683 19.0203 30.5062 18.9033 30.3117 18.8247C30.1171 18.7462 29.9087 18.7076 29.6989 18.7113C29.4891 18.715 29.2822 18.7609 29.0905 18.8463C28.8989 18.9317 28.7264 19.0548 28.5833 19.2083L25 22.7917L21.4167 19.2083Z" fill="black"/>
</g>
</g>
<defs>
<filter id="filter0_d_277_1301" x="2.6875" y="2.6875" width="48.625" height="48.625" filterUnits="userSpaceOnUse" color-interpolation-filters="sRGB">
<feFlood flood-opacity="0" result="BackgroundImageFix"/>
<feColorMatrix in="SourceAlpha" type="matrix" values="0 0 0 0 0 0 0 0 0 0 0 0 0 0 0 0 0 0 127 0" result="hardAlpha"/>
<feOffset dx="2" dy="2"/>
<feGaussianBlur stdDeviation="2"/>
<feComposite in2="hardAlpha" operator="out"/>
<feColorMatrix type="matrix" values="0 0 0 0 0 0 0 0 0 0 0 0 0 0 0 0 0 0 0.25 0"/>
<feBlend mode="normal" in2="BackgroundImageFix" result="effect1_dropShadow_277_1301"/>
<feBlend mode="normal" in="SourceGraphic" in2="effect1_dropShadow_277_1301" result="shape"/>
</filter>
<clipPath id="clip0_277_1301">
<rect width="50" height="50" fill="white"/>
</clipPath>
</defs>
</svg>
