<svg width="34" height="34" viewBox="0 0 34 34" fill="none" xmlns="http://www.w3.org/2000/svg">
<g filter="url(#filter0_d_641_4148)">
<path fill-rule="evenodd" clip-rule="evenodd" d="M15 2.8125C8.26875 2.8125 2.8125 8.26875 2.8125 15C2.8125 21.7313 8.26875 27.1875 15 27.1875C21.7313 27.1875 27.1875 21.7313 27.1875 15C27.1875 8.26875 21.7313 2.8125 15 2.8125ZM12.85 11.525C12.7642 11.4329 12.6607 11.359 12.5457 11.3078C12.4307 11.2565 12.3065 11.229 12.1807 11.2268C12.0548 11.2245 11.9297 11.2477 11.813 11.2948C11.6963 11.342 11.5902 11.4122 11.5012 11.5012C11.4122 11.5902 11.342 11.6963 11.2948 11.813C11.2477 11.9297 11.2245 12.0548 11.2268 12.1807C11.229 12.3065 11.2565 12.4307 11.3078 12.5457C11.359 12.6607 11.4329 12.7642 11.525 12.85L13.675 15L11.525 17.15C11.4329 17.2358 11.359 17.3393 11.3078 17.4543C11.2565 17.5693 11.229 17.6935 11.2268 17.8193C11.2245 17.9452 11.2477 18.0703 11.2948 18.187C11.342 18.3037 11.4122 18.4098 11.5012 18.4988C11.5902 18.5878 11.6963 18.658 11.813 18.7052C11.9297 18.7523 12.0548 18.7755 12.1807 18.7732C12.3065 18.771 12.4307 18.7435 12.5457 18.6922C12.6607 18.641 12.7642 18.5671 12.85 18.475L15 16.325L17.15 18.475C17.2358 18.5671 17.3393 18.641 17.4543 18.6922C17.5693 18.7435 17.6935 18.771 17.8193 18.7732C17.9452 18.7755 18.0703 18.7523 18.187 18.7052C18.3037 18.658 18.4098 18.5878 18.4988 18.4988C18.5878 18.4098 18.658 18.3037 18.7052 18.187C18.7523 18.0703 18.7755 17.9452 18.7732 17.8193C18.771 17.6935 18.7435 17.5693 18.6922 17.4543C18.641 17.3393 18.5671 17.2358 18.475 17.15L16.325 15L18.475 12.85C18.5671 12.7642 18.641 12.6607 18.6922 12.5457C18.7435 12.4307 18.771 12.3065 18.7732 12.1807C18.7755 12.0548 18.7523 11.9297 18.7052 11.813C18.658 11.6963 18.5878 11.5902 18.4988 11.5012C18.4098 11.4122 18.3037 11.342 18.187 11.2948C18.0703 11.2477 17.9452 11.2245 17.8193 11.2268C17.6935 11.229 17.5693 11.2565 17.4543 11.3078C17.3393 11.359 17.2358 11.4329 17.15 11.525L15 13.675L12.85 11.525Z" fill="#EFEFEF"/>
</g>
<defs>
<filter id="filter0_d_641_4148" x="0.8125" y="0.8125" width="32.375" height="32.375" filterUnits="userSpaceOnUse" color-interpolation-filters="sRGB">
<feFlood flood-opacity="0" result="BackgroundImageFix"/>
<feColorMatrix in="SourceAlpha" type="matrix" values="0 0 0 0 0 0 0 0 0 0 0 0 0 0 0 0 0 0 127 0" result="hardAlpha"/>
<feOffset dx="2" dy="2"/>
<feGaussianBlur stdDeviation="2"/>
<feComposite in2="hardAlpha" operator="out"/>
<feColorMatrix type="matrix" values="0 0 0 0 0 0 0 0 0 0 0 0 0 0 0 0 0 0 0.25 0"/>
<feBlend mode="normal" in2="BackgroundImageFix" result="effect1_dropShadow_641_4148"/>
<feBlend mode="normal" in="SourceGraphic" in2="effect1_dropShadow_641_4148" result="shape"/>
</filter>
</defs>
</svg>
