<svg width="34" height="34" viewBox="0 0 34 34" fill="none" xmlns="http://www.w3.org/2000/svg">
<g filter="url(#filter0_d_641_4124)">
<path fill-rule="evenodd" clip-rule="evenodd" d="M15 2.8125C8.26875 2.8125 2.8125 8.26875 2.8125 15C2.8125 21.7313 8.26875 27.1875 15 27.1875C21.7313 27.1875 27.1875 21.7313 27.1875 15C27.1875 8.26875 21.7313 2.8125 15 2.8125ZM20.35 15.6625C20.5256 15.4867 20.6242 15.2484 20.6242 15C20.6242 14.7516 20.5256 14.5133 20.35 14.3375L16.6 10.5875C16.5142 10.4954 16.4107 10.4215 16.2957 10.3703C16.1807 10.319 16.0565 10.2915 15.9307 10.2893C15.8048 10.287 15.6797 10.3102 15.563 10.3573C15.4463 10.4045 15.3402 10.4747 15.2512 10.5637C15.1622 10.6527 15.092 10.7588 15.0448 10.8755C14.9977 10.9922 14.9745 11.1173 14.9768 11.2432C14.979 11.369 15.0065 11.4932 15.0578 11.6082C15.109 11.7232 15.1829 11.8267 15.275 11.9125L17.425 14.0625H10.3125C10.0639 14.0625 9.8254 14.1613 9.64959 14.3371C9.47377 14.5129 9.375 14.7514 9.375 15C9.375 15.2486 9.47377 15.4871 9.64959 15.6629C9.8254 15.8387 10.0639 15.9375 10.3125 15.9375H17.425L15.275 18.0875C15.1829 18.1733 15.109 18.2768 15.0578 18.3918C15.0065 18.5068 14.979 18.631 14.9768 18.7568C14.9745 18.8827 14.9977 19.0078 15.0448 19.1245C15.092 19.2412 15.1622 19.3473 15.2512 19.4363C15.3402 19.5253 15.4463 19.5955 15.563 19.6427C15.6797 19.6898 15.8048 19.713 15.9307 19.7107C16.0565 19.7085 16.1807 19.681 16.2957 19.6297C16.4107 19.5785 16.5142 19.5046 16.6 19.4125L20.35 15.6625Z" fill="#666666"/>
</g>
<defs>
<filter id="filter0_d_641_4124" x="-2" y="-2" width="38" height="38" filterUnits="userSpaceOnUse" color-interpolation-filters="sRGB">
<feFlood flood-opacity="0" result="BackgroundImageFix"/>
<feColorMatrix in="SourceAlpha" type="matrix" values="0 0 0 0 0 0 0 0 0 0 0 0 0 0 0 0 0 0 127 0" result="hardAlpha"/>
<feOffset dx="2" dy="2"/>
<feGaussianBlur stdDeviation="2"/>
<feComposite in2="hardAlpha" operator="out"/>
<feColorMatrix type="matrix" values="0 0 0 0 0 0 0 0 0 0 0 0 0 0 0 0 0 0 0.25 0"/>
<feBlend mode="normal" in2="BackgroundImageFix" result="effect1_dropShadow_641_4124"/>
<feBlend mode="normal" in="SourceGraphic" in2="effect1_dropShadow_641_4124" result="shape"/>
</filter>
</defs>
</svg>
